# xmcd CD database file generated by MAGIX_Freedb v0.9beta0
# 
# Track frame offsets:
#      150
#      14475
#      38560
#      60820
#      94485
#      113427
#      132762
#      149307
#      168000
#      199795
#      213447
# 
# Disc length: 3040 seconds
# 
# Revision: 1 
# Processed by: cddbd v1.5PL3 Copyright (c) Steve Scherf et al.
# Submitted via: MAGIX_Freedb v0.9beta0
# 
DISCID=8a0bde0b
DTITLE=Johnny Jones - I Was Raised On the Blues
DYEAR=1900
DGENRE=Blues
TTITLE0=Johnny Jones - Chip Off The Old Block
TTITLE1=Johnny Jones - Don't Throw Your Love On Me So Strong
TTITLE2=Johnny Jones - I Was Raised On The Blues
TTITLE3=Can I Get An Amen
TTITLE4=Groove Thing
TTITLE5=Galloping Dominoes
TTITLE6=Herb Stuffing
TTITLE7=Sneaky Suspicion
TTITLE8=Mighty Low
TTITLE9=I Done That Already
TTITLE10=Baptism Of Fire
EXTD=
EXTT0=
EXTT1=
EXTT2=
EXTT3=
EXTT4=
EXTT5=
EXTT6=
EXTT7=
EXTT8=
EXTT9=
EXTT10=
PLAYORDER=
